<svg width="24.19897" height="24.84513" xmlns="http://www.w3.org/2000/svg" version="1.1">

 <g>
  <title>Layer 1</title>
  <path fill="#16ab03" class="st0" d="m7.85364,19.2698c0.3934,1.0499 0.8711,2.0763 1.4429,3.0667c0.4108,0.7115 0.8647,1.3934 1.3545,2.0457c4.8382,-1.1875 9.1421,-3.7346 12.4819,-7.215c-0.7737,-1.8074 -1.8021,-3.4807 -3.0404,-4.9742c-3.0408,3.6674 -7.3452,6.2506 -12.2389,7.0768z" id="path30"/>
  <path fill="#5e33bf" class="st1" d="m10.63634,0c-1.1627,1.5495 -2.1025,3.2671 -2.7861,5.1156c4.89511,0.8256 9.2008,3.4091 12.24231,7.0774c1.23829,-1.4935 2.2667,-3.1668 3.0404,-4.9742c-3.3432,-3.484 -7.6524,-6.0328 -12.49661,-7.2188z" id="path32"/>
  <path d="m7.85364,19.2698c-1.4714,-3.9269 -1.6917,-8.2023 -0.5846,-12.3341c0.166,-0.6195 0.3615,-1.226 0.5812,-1.8201c-1.1013,-0.1858 -2.2323,-0.2833 -3.3856,-0.2833c-0.8245,0 -1.6373,0.0507 -2.4363,0.1467c-1.3447,4.6361 -1.3973,9.6407 0,14.4276c0.7999,0.0962 1.6136,0.147 2.439,0.147c1.1546,0 2.2866,-0.0977 3.389,-0.2838l-0.0027,0z" id="path34"/>
 </g>
</svg>